<?xml version="1.0" encoding="utf-8"?>
<!-- Generator: Adobe Illustrator 22.0.0, SVG Export Plug-In . SVG Version: 6.00 Build 0)  -->
<svg version="1.1" id="Calque_1" xmlns="http://www.w3.org/2000/svg" xmlns:xlink="http://www.w3.org/1999/xlink" x="0px" y="0px"
	 viewBox="0 0 200.9 32.8" style="enable-background:new 0 0 200.9 32.8;" xml:space="preserve">
<style type="text/css">
	.st0{clip-path:url(#SVGID_2_);fill:#626366;}
	.st1{fill:#626366;}
	.st2{clip-path:url(#SVGID_4_);fill:#626366;}
	.st3{clip-path:url(#SVGID_6_);fill:#626366;}
	.st4{clip-path:url(#SVGID_8_);fill:#626366;}
	.st5{clip-path:url(#SVGID_10_);fill:#626366;}
	.st6{clip-path:url(#SVGID_12_);fill:url(#SVGID_13_);}
</style>
<g>
	<defs>
		<rect id="SVGID_1_" width="200.9" height="32.8"/>
	</defs>
	<clipPath id="SVGID_2_">
		<use xlink:href="#SVGID_1_"  style="overflow:visible;"/>
	</clipPath>
	<path class="st0" d="M92.4,8.8h2.8v6.4c-0.9,0.7-1.9,1.2-3.1,1.6c-1.2,0.4-2.4,0.6-3.6,0.6c-1.7,0-3.2-0.4-4.5-1.2
		c-1.4-0.8-2.4-1.8-3.2-3.2c-0.8-1.3-1.2-2.8-1.2-4.4c0-1.6,0.4-3.1,1.2-4.4C81.6,3,82.7,2,84.1,1.2C85.5,0.4,87,0,88.7,0
		c1.2,0,2.4,0.2,3.6,0.7c1.2,0.4,2.2,1,3,1.8l-1.8,2.4c-0.6-0.6-1.4-1.1-2.2-1.4C90.4,3.1,89.6,3,88.7,3c-1.1,0-2,0.3-2.9,0.8
		c-0.9,0.5-1.6,1.2-2.1,2.1c-0.5,0.9-0.8,1.9-0.8,2.9c0,1.1,0.3,2,0.8,2.9c0.5,0.9,1.2,1.6,2.1,2.1c0.9,0.5,1.9,0.8,3,0.8
		c0.6,0,1.2-0.1,1.8-0.3c0.6-0.2,1.2-0.4,1.8-0.8V8.8z"/>
	<path class="st0" d="M102.2,9.4h3.8c1.2,0,2.2-0.3,2.8-0.8c0.6-0.5,1-1.3,1-2.4c0-1-0.3-1.8-1-2.3c-0.6-0.5-1.6-0.8-2.8-0.8h-3.8
		V9.4z M109.6,17.2l-2.9-5c-0.1,0-0.3,0-0.6,0h-3.8v5H99V0.3h7.1c2.2,0,3.9,0.5,5.1,1.5c1.2,1,1.8,2.5,1.8,4.3
		c0,1.3-0.3,2.4-0.9,3.4c-0.6,0.9-1.4,1.6-2.5,2.1l3.7,5.6H109.6z"/>
</g>
<path class="st1" d="M123.4,3.7l3,7.1h-6L123.4,3.7z M121.8,0.3l-7.4,16.9h3.4l1.5-3.6h8.3l1.5,3.6h3.5l-7.3-16.9H121.8z"/>
<polygon class="st1" points="146.3,0.3 146.3,12 137.6,0.3 134.5,0.3 134.5,17.2 137.7,17.2 137.7,5.5 146.4,17.2 149.5,17.2 
	149.5,0.3 "/>
<g>
	<defs>
		<rect id="SVGID_3_" width="200.9" height="32.8"/>
	</defs>
	<clipPath id="SVGID_4_">
		<use xlink:href="#SVGID_3_"  style="overflow:visible;"/>
	</clipPath>
	<path class="st2" d="M163.6,13.6c0.8-0.5,1.5-1.1,1.9-2c0.5-0.8,0.7-1.8,0.7-2.9c0-1.1-0.2-2.1-0.7-2.9c-0.5-0.9-1.1-1.5-2-2
		c-0.9-0.5-1.8-0.7-2.8-0.7h-3.7v11.2h3.9C161.8,14.3,162.7,14.1,163.6,13.6 M165.2,1.3c1.3,0.7,2.4,1.7,3.1,3
		c0.8,1.3,1.1,2.8,1.1,4.4c0,1.6-0.4,3.1-1.1,4.4c-0.8,1.3-1.8,2.3-3.2,3c-1.4,0.7-2.9,1.1-4.6,1.1h-6.9V0.3h7
		C162.4,0.3,163.9,0.6,165.2,1.3"/>
</g>
<polygon class="st1" points="172.3,0.3 172.3,17.2 185,17.2 185,14.4 175.6,14.4 175.6,10.1 183.8,10.1 183.8,7.3 175.6,7.3 
	175.6,3.1 184.8,3.1 184.8,0.3 "/>
<g>
	<defs>
		<rect id="SVGID_5_" width="200.9" height="32.8"/>
	</defs>
	<clipPath id="SVGID_6_">
		<use xlink:href="#SVGID_5_"  style="overflow:visible;"/>
	</clipPath>
	<path class="st3" d="M196.3,3.4c-0.9-0.3-1.7-0.4-2.4-0.4c-0.8,0-1.4,0.1-1.8,0.4c-0.4,0.3-0.7,0.7-0.7,1.2c0,0.5,0.2,0.9,0.5,1.2
		c0.3,0.3,0.7,0.6,1.2,0.8c0.5,0.2,1.1,0.4,1.9,0.7c1.1,0.3,2.1,0.7,2.8,1c0.7,0.3,1.4,0.8,1.9,1.5c0.5,0.7,0.8,1.5,0.8,2.6
		c0,1-0.3,1.9-0.8,2.7c-0.6,0.8-1.3,1.4-2.3,1.8c-1,0.4-2.1,0.6-3.4,0.6c-1.3,0-2.6-0.2-3.9-0.7c-1.3-0.5-2.4-1.1-3.3-2l1.4-2.8
		c0.9,0.8,1.8,1.4,2.9,1.9c1.1,0.5,2.1,0.7,3,0.7c0.9,0,1.6-0.2,2.1-0.5c0.5-0.3,0.8-0.8,0.8-1.4c0-0.5-0.2-0.9-0.5-1.2
		c-0.3-0.3-0.7-0.6-1.2-0.8c-0.5-0.2-1.1-0.4-2-0.7c-1.1-0.3-2.1-0.7-2.8-1c-0.7-0.3-1.3-0.8-1.9-1.5c-0.5-0.7-0.8-1.5-0.8-2.6
		c0-1,0.3-1.8,0.8-2.6c0.5-0.7,1.3-1.3,2.2-1.7c1-0.4,2.1-0.6,3.3-0.6c1.1,0,2.2,0.2,3.3,0.5c1.1,0.3,2,0.8,2.9,1.3L199,4.6
		C198.1,4.1,197.2,3.7,196.3,3.4"/>
	<path class="st3" d="M87.8,23.5c-0.5-0.3-1.1-0.4-1.6-0.4c-0.7,0-1.3,0.2-1.9,0.5c-0.6,0.3-1,0.8-1.3,1.4c-0.3,0.6-0.5,1.2-0.5,1.9
		s0.2,1.3,0.5,1.9c0.3,0.6,0.8,1,1.3,1.4c0.6,0.3,1.2,0.5,1.9,0.5c0.5,0,1.1-0.1,1.6-0.3c0.5-0.2,1-0.6,1.4-1l1.2,1.4
		c-0.6,0.6-1.3,1.1-2,1.4c-0.8,0.3-1.5,0.5-2.3,0.5c-1.1,0-2-0.3-2.9-0.8c-0.9-0.5-1.6-1.2-2.1-2.1c-0.5-0.9-0.8-1.8-0.8-2.9
		c0-1.1,0.3-2,0.8-2.9c0.5-0.9,1.2-1.5,2.1-2c0.9-0.5,1.9-0.7,3-0.7c0.8,0,1.6,0.2,2.3,0.5c0.8,0.3,1.4,0.8,1.9,1.3l-1.2,1.5
		C88.8,24.1,88.3,23.8,87.8,23.5"/>
	<path class="st3" d="M95.1,23.6c-0.6,0.3-1,0.8-1.4,1.4c-0.3,0.6-0.5,1.2-0.5,1.9c0,0.7,0.2,1.3,0.5,1.9c0.3,0.6,0.8,1,1.4,1.4
		c0.6,0.3,1.2,0.5,1.9,0.5c0.7,0,1.3-0.2,1.8-0.5c0.6-0.3,1-0.8,1.4-1.4c0.3-0.6,0.5-1.2,0.5-1.9c0-0.7-0.2-1.3-0.5-1.9
		c-0.3-0.6-0.8-1-1.4-1.4c-0.6-0.3-1.2-0.5-1.8-0.5C96.3,23.1,95.7,23.3,95.1,23.6 M100,22c0.9,0.5,1.6,1.2,2.1,2
		c0.5,0.9,0.8,1.8,0.8,2.9c0,1.1-0.3,2-0.8,2.9c-0.5,0.9-1.2,1.6-2.1,2.1c-0.9,0.5-1.9,0.8-3,0.8c-1.1,0-2.1-0.3-3-0.8
		c-0.9-0.5-1.6-1.2-2.1-2.1c-0.5-0.9-0.8-1.8-0.8-2.9c0-1.1,0.3-2,0.8-2.9c0.5-0.9,1.2-1.5,2.1-2c0.9-0.5,1.9-0.7,3-0.7
		C98.1,21.2,99.1,21.5,100,22"/>
</g>
<polygon class="st1" points="104.7,21.4 104.7,32.4 111.6,32.4 111.6,30.5 106.8,30.5 106.8,21.4 "/>
<polygon class="st1" points="113.3,21.4 113.3,32.4 120.2,32.4 120.2,30.5 115.4,30.5 115.4,21.4 "/>
<polygon class="st1" points="121.8,21.4 121.8,32.4 130.1,32.4 130.1,30.6 123.9,30.6 123.9,27.8 129.3,27.8 129.3,26 123.9,26 
	123.9,23.2 129.9,23.2 129.9,21.4 "/>
<g>
	<defs>
		<rect id="SVGID_7_" width="200.9" height="32.8"/>
	</defs>
	<clipPath id="SVGID_8_">
		<use xlink:href="#SVGID_7_"  style="overflow:visible;"/>
	</clipPath>
	<path class="st4" d="M138.9,23.5c-0.5-0.3-1.1-0.4-1.6-0.4c-0.7,0-1.3,0.2-1.9,0.5c-0.6,0.3-1,0.8-1.3,1.4
		c-0.3,0.6-0.5,1.2-0.5,1.9s0.2,1.3,0.5,1.9c0.3,0.6,0.8,1,1.3,1.4c0.6,0.3,1.2,0.5,1.9,0.5c0.5,0,1.1-0.1,1.6-0.3
		c0.5-0.2,1-0.6,1.4-1l1.2,1.4c-0.6,0.6-1.3,1.1-2,1.4c-0.8,0.3-1.5,0.5-2.3,0.5c-1.1,0-2-0.3-2.9-0.8c-0.9-0.5-1.6-1.2-2.1-2.1
		c-0.5-0.9-0.8-1.8-0.8-2.9c0-1.1,0.3-2,0.8-2.9c0.5-0.9,1.2-1.5,2.1-2c0.9-0.5,1.9-0.7,3-0.7c0.8,0,1.6,0.2,2.3,0.5
		c0.8,0.3,1.4,0.8,1.9,1.3l-1.2,1.5C139.9,24.1,139.4,23.8,138.9,23.5"/>
</g>
<polygon class="st1" points="142,21.4 142,23.3 145.5,23.3 145.5,32.4 147.6,32.4 147.6,23.3 151,23.3 151,21.4 "/>
<rect x="152.5" y="21.4" class="st1" width="2.1" height="11.1"/>
<polygon class="st1" points="164.9,21.4 161.6,30.1 158.3,21.4 156.1,21.4 160.4,32.4 162.6,32.4 167.1,21.4 "/>
<rect x="168.5" y="21.4" class="st1" width="2.1" height="11.1"/>
<polygon class="st1" points="172.1,21.4 172.1,23.3 175.5,23.3 175.5,32.4 177.6,32.4 177.6,23.3 181.1,23.3 181.1,21.4 "/>
<path class="st1" d="M182.6,21.4v11.1h8.3v-1.8h-6.2v-2.8h5.4V26h-5.4v-2.7h6v-1.8H182.6z M185.7,20.3l1.6,0.2l2-1.6l-2-0.8
	L185.7,20.3z"/>
<g>
	<defs>
		<rect id="SVGID_9_" width="200.9" height="32.8"/>
	</defs>
	<clipPath id="SVGID_10_">
		<use xlink:href="#SVGID_9_"  style="overflow:visible;"/>
	</clipPath>
	<path class="st5" d="M198.2,23.4c-0.6-0.2-1.1-0.3-1.6-0.3c-0.5,0-0.9,0.1-1.2,0.3c-0.3,0.2-0.4,0.5-0.4,0.8c0,0.3,0.1,0.6,0.3,0.8
		c0.2,0.2,0.5,0.4,0.8,0.5c0.3,0.1,0.7,0.3,1.3,0.4c0.7,0.2,1.4,0.4,1.8,0.7c0.5,0.2,0.9,0.5,1.2,1c0.3,0.4,0.5,1,0.5,1.7
		c0,0.7-0.2,1.3-0.5,1.8c-0.4,0.5-0.9,0.9-1.5,1.1c-0.6,0.3-1.4,0.4-2.2,0.4c-0.9,0-1.7-0.2-2.5-0.5c-0.8-0.3-1.5-0.8-2.1-1.3
		l0.9-1.8c0.6,0.5,1.2,0.9,1.9,1.2c0.7,0.3,1.3,0.4,1.9,0.4c0.6,0,1-0.1,1.4-0.3c0.3-0.2,0.5-0.5,0.5-0.9c0-0.3-0.1-0.6-0.3-0.8
		c-0.2-0.2-0.5-0.4-0.8-0.5c-0.3-0.1-0.7-0.3-1.3-0.4c-0.7-0.2-1.4-0.4-1.8-0.6c-0.5-0.2-0.9-0.5-1.2-1c-0.3-0.4-0.5-1-0.5-1.7
		c0-0.6,0.2-1.2,0.5-1.7c0.3-0.5,0.8-0.9,1.5-1.1c0.6-0.3,1.3-0.4,2.2-0.4c0.7,0,1.4,0.1,2.1,0.3c0.7,0.2,1.3,0.5,1.9,0.9l-0.9,1.8
		C199.4,23.9,198.8,23.6,198.2,23.4"/>
</g>
<g>
	<defs>
		<path id="SVGID_11_" d="M6.1,5.7h7.1c2,0,3.8,0.4,5.3,1.3c1.6,0.9,2.8,2.2,3.8,3.8c0.9,1.6,1.4,3.5,1.4,5.5c0,2-0.4,3.8-1.3,5.4
			c-0.9,1.6-2.1,2.8-3.7,3.7c-1.6,0.9-3.3,1.3-5.3,1.3H6.1V5.7z M70.2,0.4v13.8H54.3V0.4h-6.1v26.8c-2.8-0.1-5.5-2.8-8-5.3l-1.4-1.4
			c4.3-1.1,7.6-5.1,7.6-9.8c0-5.5-4.4-9.9-9.8-10.1v0h-8.6h-4.2v3c-0.6-0.4-1.2-0.8-1.8-1.2c-2.5-1.4-5.4-2-8.6-2H0v31.9h13
			c3.2,0,6.1-0.7,8.7-2c2.5-1.4,4.5-3.3,6-5.7c1.4-2.4,2.2-5.1,2.2-8.2c0-2.9-0.6-5.5-1.9-7.8c0.2-1.2,0.8-2.2,1.6-3
			c1-1,2.5-1.6,4.1-1.6c3.2,0,5.8,2.6,5.8,5.8c0,0.1,0,0.3,0,0.4l0,0.4c0,0,0,0.1,0,0.1l0,0h0c0,0.1,0,0.2,0.1,0.3l0,0
			c0.1,0.1,0.2,0.4,0.4,0.6c0.2,0.3,0.4,0.7,0.5,0.8c0.2,0.3,0.2,0.6,0,0.7c-0.1,0.1-0.3,0.2-0.6,0.3c-0.1,0-0.2,0-0.3,0.1
			c0,0-0.1,0.1-0.1,0.1c-0.1,0.1-0.1,0.3,0,0.5c0,0.1,0.1,0.1,0.1,0.2c0,0.1,0,0.1,0,0.2c0,0.1-0.1,0.1-0.1,0.2c0,0-0.1,0.1-0.1,0.1
			c0,0,0,0,0,0c0,0,0,0,0,0.1c0,0.1,0.1,0.1,0.1,0.2c0,0.1,0,0.3-0.1,0.4c-0.1,0.1-0.2,0.2-0.2,0.3c-0.1,0.1,0,0.3,0,0.4
			c0.2,0.4,0.1,1-0.3,1.3c-0.2,0.1-0.4,0.2-0.6,0.2c-0.2,0-0.4,0-0.5,0c0,0-0.1,0-0.2,0c-0.3,0-0.6-0.1-0.9,0c-0.1,0-0.2,0-0.3,0.1
			c-0.1,0-0.1,0.1-0.1,0.1c0,0-3,5.1-3,5.1c3.4,3.5,7.7,9.2,13,10h8.1V19.6h15.9v13.1h6.1V0.4H70.2z"/>
	</defs>
	<clipPath id="SVGID_12_">
		<use xlink:href="#SVGID_11_"  style="overflow:visible;"/>
	</clipPath>
	
		<linearGradient id="SVGID_13_" gradientUnits="userSpaceOnUse" x1="-446.0739" y1="421.5965" x2="-445.0739" y2="421.5965" gradientTransform="matrix(76.2725 0 0 -76.2725 34023.1641 32172.7441)">
		<stop  offset="0" style="stop-color:#00264C"/>
		<stop  offset="0.1136" style="stop-color:#00264C"/>
		<stop  offset="0.2044" style="stop-color:#002B53"/>
		<stop  offset="0.3334" style="stop-color:#003965"/>
		<stop  offset="0.4848" style="stop-color:#004F84"/>
		<stop  offset="0.5116" style="stop-color:#00548A"/>
		<stop  offset="1" style="stop-color:#00A1D3"/>
	</linearGradient>
	<rect y="0.4" class="st6" width="76.3" height="32.3"/>
</g>
</svg>
